<?xml version="1.0" encoding="UTF-8" standalone="no"?>
<svg
   width="400.44882"
   height="340.90393"
   viewBox="0 0 400.67307 340.81851"
   role="img"
   aria-labelledby="title desc"
   version="1.1"
   id="svg28"
   xmlns="http://www.w3.org/2000/svg"
   xmlns:svg="http://www.w3.org/2000/svg">
  <title
     id="title">Official logo AIcebergmind</title>
  <desc
     id="desc">Official logo of the AIceberg Mind project, featuring a stylized penguin embedded within the letter A. The abstract vector design, with gradients from green to gray, symbolizes the interaction between animal intelligence, artificial intelligence, and visual language.</desc>
  <defs
     id="defs22">
    <linearGradient
       id="a"
       x1="84.639999"
       x2="412.97"
       y1="196.33"
       y2="196.33"
       data-name="Dégradé sans nom"
       gradientTransform="matrix(1,0,0,-1,-45.82,393.38171)"
       gradientUnits="userSpaceOnUse">
      <stop
         offset="0"
         stop-color="#19b09b"
         id="stop1" />
      <stop
         offset=".19"
         stop-color="#1caf9b"
         id="stop2" />
      <stop
         offset=".36"
         stop-color="#27ad9b"
         id="stop3" />
      <stop
         offset=".53"
         stop-color="#3aab9b"
         id="stop4" />
      <stop
         offset=".69"
         stop-color="#54a79b"
         id="stop5" />
      <stop
         offset=".85"
         stop-color="#76a29b"
         id="stop6" />
      <stop
         offset="1"
         stop-color="#9d9d9c"
         id="stop7" />
    </linearGradient>
    <linearGradient
       id="b"
       x1="44.84"
       x2="349.97"
       y1="223.64999"
       y2="223.64999"
       data-name="Dégradé sans nom 2"
       gradientTransform="matrix(1,0,0,-1,-45.82,393.38171)"
       gradientUnits="userSpaceOnUse">
      <stop
         offset="0"
         stop-color="#19b09b"
         id="stop8" />
      <stop
         offset=".19"
         stop-color="#1caf9b"
         id="stop9" />
      <stop
         offset=".36"
         stop-color="#27ad9b"
         id="stop10" />
      <stop
         offset=".53"
         stop-color="#3aab9b"
         id="stop11" />
      <stop
         offset=".69"
         stop-color="#54a79b"
         id="stop12" />
      <stop
         offset=".85"
         stop-color="#76a29b"
         id="stop13" />
      <stop
         offset="1"
         stop-color="#9d9d9c"
         id="stop14" />
    </linearGradient>
    <linearGradient
       id="c"
       x1="333.98001"
       x2="444.38"
       y1="116.37"
       y2="116.37"
       data-name="Dégradé sans nom 3"
       gradientTransform="matrix(1,0,0,-1,-45.82,393.38171)"
       gradientUnits="userSpaceOnUse">
      <stop
         offset="0"
         stop-color="#19b09b"
         id="stop15" />
      <stop
         offset="1"
         stop-color="#9d9d9c"
         id="stop16" />
    </linearGradient>
    <linearGradient
       id="d"
       x1="316.98001"
       x2="378"
       y1="270.82999"
       y2="270.82999"
       data-name="Dégradé sans nom 4"
       gradientTransform="matrix(1,0,0,-1,-45.82,393.38171)"
       gradientUnits="userSpaceOnUse">
      <stop
         offset="0"
         stop-color="#19b09b"
         id="stop17" />
      <stop
         offset="1"
         stop-color="#9d9d9c"
         id="stop18" />
    </linearGradient>
    <linearGradient
       id="e"
       x1="263.97"
       x2="289.54999"
       y1="279"
       y2="279"
       data-name="Dégradé sans nom 5"
       gradientTransform="matrix(1,0,0,-1,-45.82,393.38171)"
       gradientUnits="userSpaceOnUse">
      <stop
         offset="0"
         stop-color="#19b09b"
         id="stop19" />
      <stop
         offset="1"
         stop-color="#9d9d9c"
         id="stop20" />
    </linearGradient>
    <linearGradient
       id="f"
       x1="311.51999"
       x2="380.23001"
       y1="224.81"
       y2="224.81"
       data-name="Dégradé sans nom 6"
       gradientTransform="matrix(1,0,0,-1,-45.82,393.38171)"
       gradientUnits="userSpaceOnUse">
      <stop
         offset="0"
         stop-color="#19b09b"
         id="stop21" />
      <stop
         offset="1"
         stop-color="#9d9d9c"
         id="stop22" />
    </linearGradient>
  </defs>
  <path
     d="m 273.67,111.53171 0.7,2.02 -1.29,1.46 c -4.56,-11.18 -11.92,-22.319999 -22.42,-28.679999 -39.83,-24.12 -83.52,16.569999 -70.95,58.899999 2.18,7.35 6.54,13.85 9.25,20.97 6.4,16.82 6.59,36.1 1.09,53.14 -10.4,0.87 -20.95,0.73 -31.46,0.7 l -0.99,0.45 -0.21,1.46 c 0.46,0.72 11.8,0.55 13.7,0.51 58.61,-1.42 118.97,-8.36 171.59,-35.74 l 24.47,-14.15 c -1.94,5.38 -3.93,10.79 -6.31,15.99 -27.08,59.2 -99.55,93.62 -162.39,97.21 -8.46,0.48 -17.06,-0.14 -25.44,-0.04 -13.29,0.16 -30.19,17.44 -36.35,28.47 -2.91,5.22 -4.94,13.87 -8.15,18.24 -3.69,5.02 -17.45,4.17 -23.15,4.11 -1.13,-0.01 -1.79,0.03 -2.92,0.02 -21.2,-0.18 -42.42,0.18 -63.62,0.02 28.42,-63.23 56.96,-126.42 85.52,-189.6 14.25,-31.52 25.87,-66.639999 59.58,-82.909999 42.45,-20.49 74.82,9.76 89.73,47.449999 z"
     style="opacity:0.36;fill:url(#a)"
     id="path22" />
  <path
     d="M 3.0000003,336.57171 C 5.1100003,329.99171 129.14,40.881711 132.7,31.971711 c 0.45,-0.96 0.99,-2.7 1.57,-3.92 2.38,-5.77 5.49,-11.12 9.21,-14.84 7.16,-7.6799997 18.54,-9.9299997 28.78,-10.1199997 18.75,-0.73 38.43,0.27 57.24,0.19 20.64,-0.27 32.28,4.37 40.76,24.1599997 10.74,23.1 19.08,49.17 29.67,72.49 0.52,1.149999 1.96,3.199999 0.77,3.799999 -1.52,0.77 -2.3,1.14 -3.57,1.32 -5.63,0.54 -11.49,1.19 -16.4,3.78 -2.69,1.48 -4.22,1.01 -5.36,-1.9 -3.31,-7.829999 -7.68,-15.259999 -12.63,-22.229999 -26.35,-38.3 -67.71,-38.88 -99.84,-8.45 -9.16,8.46 -17.53,19.46 -23.79,30.899999 -26.52,53.1 -48.81,109.27 -73.62,163.19 -9.26,20.81 -18.51,42.15 -28.43,62.24 -0.96,1.86 -1.7,3.23 -2.71,3.7 -0.55,0.26 -1.25,0.33 -1.91,0.33 -6.52,-0.17 -24.1799997,0.15 -29.4099997,-0.02 h -0.03 z"
     style="fill:none;stroke:url(#b);stroke-width:6px;stroke-miterlimit:10"
     id="path23" />
  <path
     d="m 393.29,337.85171 c -19.66,0.05 -53.58,0.07 -75.25,0.06 -7.72,0 -13.55,0.02 -16.41,-0.02 -3.42,-0.31 -6.4,-2.81 -8.58,-5.76 -1.24,-1.76 -1.92,-3.83 -1.89,-5.76 0.02,-8.71 0,-42.7 0.03,-58.59 -0.16,-3.18 0.14,-5.17 3.33,-6.77 21.71,-13.08 35.65,-22.75 51.5,-43.38 0.66,-0.78 1.25,-1.33 1.62,-1.47 0.27,-0.11 0.45,-0.03 0.56,0.14 4.6,11.38 26.93,65.37 36.92,89.82 5.06,12.33 9.96,24.26 12.47,30.63 0.67,1.61 -2.87,0.96 -4.15,1.1 z"
     style="fill:none;stroke:url(#c);stroke-width:6px;stroke-miterlimit:10"
     id="path24" />
  <path
     d="m 331.64,107.34171 c 0.45,0.32 -6.55,7.79 -7.19,8.39 -11.58,10.86 -25.03,14.73 -39.2,20.89 -2.56,1.06 -2.76,1.4 -3.8,1.93 -0.34,0.23 -1.33,0.21 -1.73,0.11 -3.87,-0.93 -5.85,-2.1 -7.01,-4.34 -3.69,-7.14 2.98,-19.35 9.98,-22.35 4.12,-1.76 13.16,-2.39 18,-4 3,-1 5.48,-1.4 6.7,-1.44 9.04,-0.26 15.26,-0.32 24.26,0.79 v 0.02 z"
     style="fill:none;stroke:url(#d);stroke-miterlimit:10"
     id="path25" />
  <path
     d="m 230.73,101.72171 c 16.34,-0.33 16.86,24.99 0.35,25.32 -16.1,0.33 -16.91,-24.99 -0.35,-25.32 z"
     style="fill:none;stroke:url(#e);stroke-miterlimit:10"
     id="path26" />
  <path
     d="m 333.77,188.71171 -24.46,-59.17 c -0.51,-0.14 -0.95,0.08 -1.43,0.22 -5.94,1.75 -25.81,10.23 -30.39,13.76 -9.77,7.52 -13.45,23.8 -10.05,35.29 2.36,7.95 8.31,15.03 12.51,22.03 0.66,1.11 2.99,6.61 3.74,6.79 17.36,-4.33 34.16,-10.85 50.08,-18.92 z"
     style="fill:none;stroke:url(#f);stroke-miterlimit:10"
     id="path27" />
  <path
     d="m 309.89,128.49171 24.89,60.22 z"
     style="fill:none;stroke:#9ea1a1;stroke-width:6px;stroke-miterlimit:10"
     id="path28" />
</svg>
