<?xml version="1.0" encoding="UTF-8"?>
<svg id="Livello_1" data-name="Livello 1" xmlns="http://www.w3.org/2000/svg" viewBox="0 0 400.84 339.24">
  <defs>
    <style>
      .cls-1 {
        fill: none;
        stroke: white;
        stroke-width: 2;
        stroke-linecap: round;
        stroke-linejoin: round;
        opacity: 0.9;
      }
      .cls-wireframe {
        fill: none;
        stroke: #5ee4c3;
        stroke-width: 1.5;
        stroke-linecap: round;
        stroke-linejoin: round;
        opacity: 0.7;
      }
      .cls-glow {
        fill: none;
        stroke: white;
        stroke-width: 1;
        filter: drop-shadow(0 0 3px rgba(255, 255, 255, 0.4));
      }
    </style>
  </defs>
  
  <!-- Effetto glow sottile per alcuni elementi principali -->
  <g class="cls-glow">
    <!-- Contorno principale della A -->
    <path d="M348.26,212.05c-.43-.35-1.06-.28-1.41.15-1.21,1.5-2.4,3.01-3.6,4.53-2.57,3.27-5.23,6.65-8.05,9.77-8,8.82-17.48,16.69-28.99,24.04-4.62,2.95-9.36,5.74-14.19,8.37-.18.13-.37.26-.57.36-.26.12-1.63.88-1.37.68-.04.02-.08.04-.12.06-.24.16-.5.3-.77.4-4.56,2.4-9.19,4.65-13.87,6.73-12.53,5.56-25.83,10.01-39.54,13.21-11.59,2.71-22.07,4.38-32.05,5.1-8.5.61-17.62.83-29.59.7-1.93-.02-2.88-.03-3.29.37-.22-.01-.47-.03-.76-.05-4.36-.28-8.77,3.07-12.65,6.02-1.25.95-2.42,1.84-3.53,2.57-4.08,2.68-15.35,16-17.22,20.36-1.54,3.59-2.3,5.42-2.94,6.99-.86,2.09-1.54,3.74-3.69,8.58-2.98,6.72-15.72,6.35-25.03,6.08-1.49-.04-2.89-.08-4.17-.09-14.25-.12-28.74-.09-42.76-.07-5.84,0-11.68.02-17.52.02h-6.2c-10.34,0-20.67,0-31.01,0-.29,0-.59-.02-.9-.04,1.07-2.51,2.14-4.99,3.19-7.46,2.76-6.43,5.37-12.51,7.98-18.73,3.28-7.81,6.55-15.64,9.81-23.46,3.5-8.39,7-16.78,10.53-25.16,8.27-19.65,15.08-35.75,21.46-50.68,4.5-10.52,9.02-21.04,13.54-31.55,4.31-10.03,8.63-20.06,12.92-30.1,4.56-10.67,9.08-21.37,13.61-32.06,2.24-5.29,4.48-10.59,6.72-15.88l2.76-6.51c6.53-15.41,13.07-30.82,19.61-46.22.9-2.12,1.8-4.24,2.7-6.36,2.82-6.68,5.74-13.58,8.74-20.32,4.22-9.49,10.66-15.52,19.68-18.41,5.42-1.74,11.04-1.98,16.3-1.98h.06c25.86,0,47.41.08,67.79.24,5.22.04,10.43,1.59,15.49,4.59,8.1,4.82,12.09,12.65,14.65,18.94,3.21,7.86,6.52,15.82,9.73,23.52l3.04,7.31c2.96,7.11,5.92,14.21,8.88,21.31l11.53,27.66c.17.41.59.66,1.03.61.37-.04.73-.09,1.08-.14.68-.09,1.32-.18,1.93-.19l2.05-.03c5.4-.09,10.98-.18,16.46-.18,1.87,0,3.77.13,5.61.26.84.06,1.67.12,2.51.17.52.03,1.02-.39,1.05-.94.03-.55-.39-1.02-.94-1.06-.83-.05-1.65-.11-2.48-.17-1.88-.14-3.79-.26-5.76-.27-5.5,0-11.09.09-16.5.18l-2.05.03c-.73.01-1.43.11-2.17.21-.09.01-.19.03-.29.04l-11.24-26.96c-2.96-7.1-5.92-14.2-8.88-21.31l-3.04-7.31c-3.21-7.7-6.52-15.66-9.73-23.51-2.68-6.57-6.87-14.78-15.48-19.9-5.36-3.19-10.92-4.83-16.5-4.87-20.39-.16-41.94-.23-67.81-.24h-.06c-5.42,0-11.22.26-16.91,2.08-9.47,3.04-16.5,9.6-20.9,19.5-3,6.75-5.92,13.67-8.75,20.35-.9,2.12-1.79,4.24-2.69,6.36-6.55,15.4-13.08,30.81-19.61,46.22l-2.76,6.51c-2.25,5.29-4.48,10.59-6.72,15.88-4.52,10.69-9.04,21.38-13.6,32.05-4.29,10.04-8.6,20.06-12.92,30.09-4.52,10.51-9.05,21.03-13.54,31.56-6.38,14.93-13.2,31.04-21.46,50.69-3.53,8.38-7.03,16.77-10.53,25.17-3.26,7.82-6.52,15.64-9.81,23.45-2.61,6.21-5.22,12.29-7.97,18.72-1.24,2.88-2.48,5.79-3.74,8.73-.13.3-.1.64.07.91.17.28.46.45.78.48.33.02.62.05.9.07.57.05,1.05.09,1.54.09,10.34,0,20.68,0,31.01,0h6.2c5.84,0,11.68,0,17.52-.02,14.01-.02,28.49-.05,42.74.07,1.26,0,2.66.05,4.13.09,1.95.06,4.04.12,6.17.12,8.65,0,17.91-1.01,20.74-7.39,2.16-4.86,2.84-6.52,3.71-8.62.64-1.56,1.4-3.39,2.93-6.96,1.74-4.05,12.68-16.98,16.48-19.47,1.17-.77,2.37-1.68,3.64-2.65,3.61-2.74,7.7-5.84,11.32-5.62,2.57.16,3.26.2,3.5-.32.19,0,.41,0,.65,0,12.02.13,21.2-.08,29.75-.7,10.08-.73,20.67-2.41,32.36-5.14,13.83-3.23,27.25-7.72,39.89-13.33,10.76-4.78,21.24-10.42,31.17-16.76,11.66-7.45,21.27-15.43,29.39-24.39,2.87-3.17,5.55-6.58,8.14-9.88,1.19-1.51,2.37-3.02,3.58-4.51.35-.43.28-1.06-.15-1.41Z"/>
    <!-- Occhio del pinguino -->
    <path d="M231.09,128.3c-8.04,0-14.57-6.54-14.57-14.57s6.54-14.57,14.57-14.57,14.57,6.54,14.57,14.57-6.54,14.57-14.57,14.57ZM231.09,101.15c-6.93,0-12.57,5.64-12.57,12.57s5.64,12.57,12.57,12.57,12.57-5.64,12.57-12.57-5.64-12.57-12.57-12.57Z"/>
  </g>
  
  <!-- Elementi principali in wireframe bianco -->
  <g class="cls-1">
    <!-- Tutti i path originali convertiti in stroke bianco -->
    <path d="M348.26,212.05c-.43-.35-1.06-.28-1.41.15-1.21,1.5-2.4,3.01-3.6,4.53-2.57,3.27-5.23,6.65-8.05,9.77-8,8.82-17.48,16.69-28.99,24.04-4.62,2.95-9.36,5.74-14.19,8.37-.18.13-.37.26-.57.36-.26.12-1.63.88-1.37.68-.04.02-.08.04-.12.06-.24.16-.5.3-.77.4-4.56,2.4-9.19,4.65-13.87,6.73-12.53,5.56-25.83,10.01-39.54,13.21-11.59,2.71-22.07,4.38-32.05,5.1-8.5.61-17.62.83-29.59.7-1.93-.02-2.88-.03-3.29.37-.22-.01-.47-.03-.76-.05-4.36-.28-8.77,3.07-12.65,6.02-1.25.95-2.42,1.84-3.53,2.57-4.08,2.68-15.35,16-17.22,20.36-1.54,3.59-2.3,5.42-2.94,6.99-.86,2.09-1.54,3.74-3.69,8.58-2.98,6.72-15.72,6.35-25.03,6.08-1.49-.04-2.89-.08-4.17-.09-14.25-.12-28.74-.09-42.76-.07-5.84,0-11.68.02-17.52.02h-6.2c-10.34,0-20.67,0-31.01,0-.29,0-.59-.02-.9-.04,1.07-2.51,2.14-4.99,3.19-7.46,2.76-6.43,5.37-12.51,7.98-18.73,3.28-7.81,6.55-15.64,9.81-23.46,3.5-8.39,7-16.78,10.53-25.16,8.27-19.65,15.08-35.75,21.46-50.68,4.5-10.52,9.02-21.04,13.54-31.55,4.31-10.03,8.63-20.06,12.92-30.1,4.56-10.67,9.08-21.37,13.61-32.06,2.24-5.29,4.48-10.59,6.72-15.88l2.76-6.51c6.53-15.41,13.07-30.82,19.61-46.22.9-2.12,1.8-4.24,2.7-6.36,2.82-6.68,5.74-13.58,8.74-20.32,4.22-9.49,10.66-15.52,19.68-18.41,5.42-1.74,11.04-1.98,16.3-1.98h.06c25.86,0,47.41.08,67.79.24,5.22.04,10.43,1.59,15.49,4.59,8.1,4.82,12.09,12.65,14.65,18.94,3.21,7.86,6.52,15.82,9.73,23.52l3.04,7.31c2.96,7.11,5.92,14.21,8.88,21.31l11.53,27.66c.17.41.59.66,1.03.61.37-.04.73-.09,1.08-.14.68-.09,1.32-.18,1.93-.19l2.05-.03c5.4-.09,10.98-.18,16.46-.18,1.87,0,3.77.13,5.61.26.84.06,1.67.12,2.51.17.52.03,1.02-.39,1.05-.94.03-.55-.39-1.02-.94-1.06-.83-.05-1.65-.11-2.48-.17-1.88-.14-3.79-.26-5.76-.27-5.5,0-11.09.09-16.5.18l-2.05.03c-.73.01-1.43.11-2.17.21-.09.01-.19.03-.29.04l-11.24-26.96c-2.96-7.1-5.92-14.2-8.88-21.31l-3.04-7.31c-3.21-7.7-6.52-15.66-9.73-23.51-2.68-6.57-6.87-14.78-15.48-19.9-5.36-3.19-10.92-4.83-16.5-4.87-20.39-.16-41.94-.23-67.81-.24h-.06c-5.42,0-11.22.26-16.91,2.08-9.47,3.04-16.5,9.6-20.9,19.5-3,6.75-5.92,13.67-8.75,20.35-.9,2.12-1.79,4.24-2.69,6.36-6.55,15.4-13.08,30.81-19.61,46.22l-2.76,6.51c-2.25,5.29-4.48,10.59-6.72,15.88-4.52,10.69-9.04,21.38-13.6,32.05-4.29,10.04-8.6,20.06-12.92,30.09-4.52,10.51-9.05,21.03-13.54,31.56-6.38,14.93-13.2,31.04-21.46,50.69-3.53,8.38-7.03,16.77-10.53,25.17-3.26,7.82-6.52,15.64-9.81,23.45-2.61,6.21-5.22,12.29-7.97,18.72-1.24,2.88-2.48,5.79-3.74,8.73-.13.3-.1.64.07.91.17.28.46.45.78.48.33.02.62.05.9.07.57.05,1.05.09,1.54.09,10.34,0,20.68,0,31.01,0h6.2c5.84,0,11.68,0,17.52-.02,14.01-.02,28.49-.05,42.74.07,1.26,0,2.66.05,4.13.09,1.95.06,4.04.12,6.17.12,8.65,0,17.91-1.01,20.74-7.39,2.16-4.86,2.84-6.52,3.71-8.62.64-1.56,1.4-3.39,2.93-6.96,1.74-4.05,12.68-16.98,16.48-19.47,1.17-.77,2.37-1.68,3.64-2.65,3.61-2.74,7.7-5.84,11.32-5.62,2.57.16,3.26.2,3.5-.32.19,0,.41,0,.65,0,12.02.13,21.2-.08,29.75-.7,10.08-.73,20.67-2.41,32.36-5.14,13.83-3.23,27.25-7.72,39.89-13.33,10.76-4.78,21.24-10.42,31.17-16.76,11.66-7.45,21.27-15.43,29.39-24.39,2.87-3.17,5.55-6.58,8.14-9.88,1.19-1.51,2.37-3.02,3.58-4.51.35-.43.28-1.06-.15-1.41Z"/>
    
    <!-- Altri elementi del path originale -->
    <path d="M41.24,338.76c-.14,0-.28-.03-.41-.09-.5-.23-.73-.82-.5-1.32l5.49-12.09c4.56-10.05,9.13-20.09,13.68-30.14l.74-1.64c6.23-13.75,12.46-27.51,18.66-41.28,3.65-8.11,7.28-16.22,10.91-24.34,3.21-7.18,6.43-14.37,9.65-21.55,2.38-5.3,4.77-10.59,7.17-15.88,2.94-6.5,5.88-13,8.8-19.51,1.86-4.16,3.73-8.32,5.6-12.48,5.85-13.02,11.9-26.48,17.64-39.81,8.33-19.33,17.71-33.43,29.52-44.37,10.36-9.6,21.02-15.74,32.6-18.75,14.05-3.66,27.73-2.34,40.66,3.93,8.27,4.01,15.54,10.17,22.23,18.83,6.76,8.76,12.48,18.6,17.5,30.1.22.51-.01,1.1-.52,1.32-.51.22-1.1-.01-1.32-.52-4.95-11.35-10.59-21.05-17.25-29.68-6.5-8.42-13.54-14.39-21.52-18.26-12.67-6.14-25.52-7.38-39.28-3.79-11.25,2.93-21.64,8.91-31.75,18.28-11.59,10.75-20.82,24.63-29.04,43.69-5.75,13.34-11.8,26.81-17.66,39.83-1.87,4.16-3.74,8.31-5.6,12.47-2.92,6.52-5.86,13.02-8.8,19.52-2.39,5.29-4.79,10.58-7.17,15.87-3.22,7.18-6.44,14.36-9.65,21.54-3.63,8.12-7.26,16.23-10.91,24.34-6.2,13.77-12.43,27.53-18.66,41.28l-.74,1.64c-4.55,10.05-9.12,20.1-13.68,30.15l-5.49,12.09c-.17.37-.53.59-.91.59Z"/>
    
    <!-- Occhio del pinguino -->
    <path d="M231.09,128.3c-8.04,0-14.57-6.54-14.57-14.57s6.54-14.57,14.57-14.57,14.57,6.54,14.57,14.57-6.54,14.57-14.57,14.57ZM231.09,101.15c-6.93,0-12.57,5.64-12.57,12.57s5.64,12.57,12.57,12.57,12.57-5.64,12.57-12.57-5.64-12.57-12.57-12.57Z"/>
  </g>
  
  <!-- Elementi decorativi in color acqua -->
  <g class="cls-wireframe">
    <!-- Alcune linee decorative per l'effetto wireframe -->
    <path d="M191.69,220.5c-.09,0-.18-.01-.28-.04-.53-.15-.84-.71-.69-1.24,3.15-11.04,4.34-21.38,3.64-31.62-.64-9.29-3-18.39-7.01-27.04-.58-1.25-1.18-2.49-1.77-3.73-2.48-5.16-5.05-10.5-6.29-16.34-2.12-9.97-1.47-19.6,1.93-28.62,4.26-11.29,11.6-20.15,21.81-26.33,12.64-7.66,26.23-8.67,40.38-2.99,11.37,4.56,20.05,12.99,26.55,25.78.92,1.81,1.82,3.68,2.68,5.47.4.84.81,1.69,1.22,2.53.24.5.03,1.1-.46,1.34-.49.24-1.1.04-1.34-.46-.41-.84-.82-1.69-1.22-2.54-.86-1.79-1.75-3.64-2.66-5.43-6.27-12.33-14.62-20.46-25.52-24.83-13.53-5.43-26.52-4.48-38.6,2.84-9.82,5.95-16.88,14.47-20.98,25.33-3.27,8.66-3.89,17.91-1.85,27.5,1.19,5.61,3.71,10.83,6.14,15.89.6,1.25,1.2,2.5,1.79,3.76,4.11,8.87,6.53,18.21,7.19,27.74.72,10.47-.49,21.04-3.71,32.31-.13.44-.53.73-.96.73Z"/>
    
    <!-- Altri dettagli decorativi -->
    <path d="M285.81,207.81c.07-.03.13-.07.2-.09.07-.04.15-.06.22-.09.23-.24.35-.59.26-.94-.14-.53-.69-.84-1.23-.7-12.55,3.4-23.71,5.77-34.13,7.24-9.98,1.41-20.49,2.71-31.24,3.87-4.76.51-9.64.75-14.36.99-1.21.06-2.41.12-3.62.18-11.25.6-19.9,1.02-28.07,1.36-2.32.1-4.7.07-7,.05-1.08-.01-2.15-.02-3.23-.02h-5.02c-.55,0-1,.45-1,1s.45,1,1,1h5.02c1.07,0,2.14.01,3.2.02,1.06.01,2.13.02,3.22.02,1.3,0,2.6-.02,3.89-.07,8.17-.34,16.84-.76,28.09-1.36,1.2-.06,2.41-.12,3.61-.18,4.75-.24,9.66-.48,14.47-1,10.78-1.16,21.31-2.46,31.31-3.87,10.26-1.45,21.24-3.77,33.51-7.07.29-.13.59-.24.89-.32Z"/>
  </g>
</svg>